# xmcd
#
# Track frame offsets:
# 150
# 19788
# 38471
# 52642
# 65248
# 77900
# 89614
# 103711
# 121535
# 142359
# 156236
# 167135
# 179215
# 194437
# 208988
# 224136
# 239335
# 255595
# 267933
# 282103
#
# Disc length: 4023 seconds
#
#
# Revision: 0
# Processed by: cddbd v1.5.2PL0 Copyright (c) Steve Scherf et al.
# Submitted via: FreeRIP 2.96 
#
DISCID=340fb514
DTITLE=Luan Santana - O Nosso Tempo É Hoje
DYEAR=2013
DGENRE=Sertanejo
TTITLE0=Um Brinde Ao Nosso Amor
TTITLE1=Tudo Que Você Quiser
TTITLE2=Garotas Não Merecem Chorar
TTITLE3=Cé Topa
TTITLE4=Sogrão Caprichou
TTITLE5=Tanto Faz
TTITLE6=Parede Branca
TTITLE7=Voar Outra Vez
TTITLE8=Te Esperando
TTITLE9=Multiplica
TTITLE10=Donzela
TTITLE11=Te Vejo Linda
TTITLE12=Pot-Pourri: Anjo Loiro/O Último Dos Apaixonados
TTITLE13=Isso Que É Amor
TTITLE14=Promete
TTITLE15=O Nosso Tempo É Hoje
TTITLE16=Te Vivo
TTITLE17=Cabou, Cabou
TTITLE18=Mais Que Amigos
TTITLE19=Nega
EXTD=Ano 2013 - M.P.A.
EXTT0=
EXTT1=
EXTT2=
EXTT3=
EXTT4=
EXTT5=
EXTT6=
EXTT7=
EXTT8=
EXTT9=
EXTT10=
EXTT11=
EXTT12=
EXTT13=
EXTT14=
EXTT15=
EXTT16=
EXTT17=
EXTT18=
EXTT19=
PLAYORDER=
